<svg width="55" height="52" viewBox="0 0 55 52" fill="none" xmlns="http://www.w3.org/2000/svg">
<path d="M47.1022 26.6043V40.0146C47.1022 41.0829 46.7218 42.0703 46.0905 42.8472H36.9614C37.2852 42.0622 37.4632 41.2043 37.4632 40.306V24.9209H46.7784C46.9888 25.4389 47.1022 26.0054 47.1022 26.6043Z" fill="#402874"/>
<path d="M37.4634 19.9274V20.0241L37.5762 19.9193C37.5359 19.9274 37.4956 19.9274 37.4634 19.9274Z" fill="black"/>
<path d="M49.3438 26.6042V40.0146C49.3438 41.0262 49.1172 41.9893 48.7125 42.8472H46.0903C46.7216 42.0702 47.102 41.0829 47.102 40.0146V26.6042C47.102 26.0053 46.9887 25.4388 46.7782 24.9208H48.4212C48.6559 24.9208 48.8825 24.8885 49.101 24.8237C49.2628 25.3903 49.3438 25.9891 49.3438 26.6042Z" fill="#2B2B2B"/>
<path d="M48.4215 22.6871H37.4634V20.0245L37.5767 19.9193L41.518 16.245L48.4215 22.6871Z" fill="#5F439A"/>
<path d="M37.5762 19.9192L37.4634 20.024V19.9273C37.4956 19.9273 37.5359 19.9273 37.5762 19.9192Z" fill="white"/>
<path d="M37.4634 19.9273V20.024L37.5762 19.9192C37.5359 19.9273 37.4956 19.9273 37.4634 19.9273ZM37.4634 19.9273V20.024L37.5762 19.9192C37.5359 19.9273 37.4956 19.9273 37.4634 19.9273Z" fill="black"/>
<path d="M50.5019 23.5046C50.2511 24.152 49.7331 24.6214 49.1018 24.8238C48.8833 24.8885 48.6567 24.9209 48.422 24.9209H37.4639V22.6872H48.422L41.5185 16.245L37.5772 19.9193C37.5367 19.9274 37.4962 19.9274 37.4639 19.9274V16.9653L39.9889 14.6102C40.8468 13.809 42.1822 13.809 43.0401 14.6102L49.9516 21.0523C50.6233 21.6836 50.8419 22.6467 50.5019 23.5046Z" fill="#2B2B2B"/>
<path d="M17.1573 42.8472H7.87444C7.24317 42.0703 6.86279 41.0829 6.86279 40.0146V26.6043C6.86279 26.0054 6.9761 25.4389 7.18652 24.9209H16.6555V40.306C16.6555 41.2043 16.8336 42.0622 17.1573 42.8472Z" fill="#402874"/>
<path d="M20.8964 24.3139C20.8721 24.3382 20.8478 24.3625 20.8154 24.3868V24.1359C20.8478 24.1925 20.8721 24.2492 20.8964 24.3139Z" fill="white"/>
<path d="M20.8154 24.1359V24.3868C20.8478 24.3625 20.8721 24.3382 20.8964 24.3139C20.8721 24.2492 20.8478 24.1925 20.8154 24.1359Z" fill="black"/>
<path d="M7.87426 42.8472H5.26017C4.85551 41.9893 4.62891 41.0262 4.62891 40.0146V26.6042C4.62891 25.9891 4.70984 25.3903 4.8717 24.8237C5.08212 24.8885 5.30873 24.9208 5.54343 24.9208H7.18634C6.97592 25.4388 6.86262 26.0053 6.86262 26.6042V40.0146C6.86262 41.0829 7.243 42.0702 7.87426 42.8472Z" fill="#2B2B2B"/>
<path d="M16.6568 20.1621V22.6871H5.54492L12.4565 16.245L16.3978 19.9193L16.6568 20.1621Z" fill="#5F439A"/>
<path d="M20.8154 24.1357V24.3866C20.8478 24.3624 20.8721 24.3381 20.8964 24.3138C20.8721 24.249 20.8478 24.1924 20.8154 24.1357Z" fill="black"/>
<path d="M12.4554 16.2449L5.54388 22.6871H16.6558V24.9208H5.54388C5.30918 24.9208 5.08257 24.8884 4.87215 24.8237C4.24089 24.6295 3.71483 24.152 3.46394 23.5045C3.12403 22.6466 3.34255 21.6835 4.01428 21.0523L10.9258 14.6101C11.3548 14.2136 11.9051 14.0112 12.4554 14.0112C12.9977 14.0112 13.548 14.2136 13.977 14.6101L16.6558 17.1109V20.162L16.3968 19.9192L12.4554 16.2449Z" fill="#2B2B2B"/>
<path d="M18.8882 14.7478V40.306C18.8882 41.1153 19.1067 41.8842 19.4952 42.5397C19.5518 42.6449 19.6166 42.7501 19.6894 42.8472H34.4351C34.4756 42.7906 34.5161 42.7258 34.5565 42.653C34.9855 41.9732 35.2283 41.1639 35.2283 40.306V14.7478H18.8882ZM33.3021 28.1177C33.3021 29.016 33.035 29.8577 32.5737 30.5618C32.2743 31.015 31.8939 31.4197 31.4569 31.7272C30.7204 32.2776 29.8139 32.5932 28.8266 32.5932H25.2818C24.2378 32.5932 23.2747 32.229 22.5139 31.622C22.0526 31.2659 21.6722 30.8127 21.389 30.3028C21.0248 29.6554 20.8144 28.9108 20.8144 28.1177V22.493C20.8144 22.3877 20.8144 22.2744 20.8305 22.1692C20.8467 21.8293 20.9115 21.4975 21.0086 21.1819C21.567 19.3528 23.2747 18.0174 25.2818 18.0174H28.8266C30.7932 18.0174 32.4685 19.2962 33.0674 21.0605C33.1726 21.368 33.2454 21.6836 33.2778 22.0155V22.0235C33.294 22.1773 33.3021 22.3392 33.3021 22.493V28.1177Z" fill="#C6C62E"/>
<path d="M20.8954 24.3139C20.8711 24.3382 20.8468 24.3625 20.8145 24.3868V24.1359C20.8468 24.1925 20.8711 24.2492 20.8954 24.3139Z" fill="white"/>
<path d="M37.4624 14.7478V40.306C37.4624 41.2043 37.2843 42.0622 36.9606 42.8472H34.4355C34.476 42.7906 34.5165 42.7258 34.5569 42.653C34.9859 41.9732 35.2287 41.1639 35.2287 40.306V14.7478H37.4624Z" fill="#2B2B2B"/>
<path d="M19.6902 42.8472H17.157C16.8333 42.0622 16.6553 41.2043 16.6553 40.306V14.7478H18.889V40.306C18.889 41.1153 19.1075 41.8842 19.496 42.5397C19.5526 42.6449 19.6174 42.7501 19.6902 42.8472Z" fill="#2B2B2B"/>
<path d="M49.951 42.8472H4.15988C1.86952 42.8472 0 44.7167 0 47.0071C0 49.3055 1.86952 51.175 4.15988 51.175H49.951C52.2494 51.175 54.1189 49.3055 54.1189 47.0071C54.1189 44.7167 52.2494 42.8472 49.951 42.8472ZM49.951 48.9413H4.15988C3.09968 48.9413 2.23371 48.0753 2.23371 47.0071C2.23371 45.9468 3.09968 45.0809 4.15988 45.0809H49.951C51.0112 45.0809 51.8771 45.9468 51.8771 47.0071C51.8771 48.0753 51.0112 48.9413 49.951 48.9413Z" fill="#2B2B2B"/>
<path d="M51.8768 47.0071C51.8768 48.0754 51.0108 48.9414 49.9506 48.9414H4.15957C3.09937 48.9414 2.2334 48.0754 2.2334 47.0071C2.2334 45.9469 3.09937 45.0809 4.15957 45.0809H49.9506C51.0108 45.0809 51.8768 45.9469 51.8768 47.0071Z" fill="#5F449A"/>
<path d="M39.2848 10.9035L33.2231 5.06834L31.2241 3.14217L28.61 0.625196C27.7359 -0.208399 26.3844 -0.208399 25.5103 0.625196L14.8354 10.9035C14.1718 11.5429 13.9695 12.5059 14.3094 13.3557C14.6574 14.2055 15.4667 14.7478 16.3812 14.7478H37.731C38.6455 14.7478 39.4629 14.1974 39.8109 13.3557C40.1508 12.5059 39.9485 11.5429 39.2848 10.9035ZM37.731 12.514H16.3893L17.061 11.8666L21.2938 7.78764L27.0561 2.23573L32.8346 7.79573L37.0511 11.8423L37.7471 12.514C37.7471 12.514 37.739 12.514 37.731 12.514Z" fill="#2B2B2B"/>
<path d="M37.7465 12.514C37.7465 12.514 37.7384 12.514 37.7303 12.514H16.3887L17.0604 11.8666L21.2931 7.78762L27.0555 2.23572L32.834 7.79572L37.0505 11.8423L37.7465 12.514Z" fill="#F7EC21"/>
<path d="M20.8164 24.1359V24.3868C20.8488 24.3625 20.8731 24.3382 20.8973 24.3139C20.8731 24.2492 20.8488 24.1925 20.8164 24.1359Z" fill="black"/>
<path d="M33.2808 22.0236V22.0155C33.2485 21.6837 33.1756 21.368 33.0704 21.0605C32.4715 19.2962 30.7962 18.0175 28.8296 18.0175H25.2848C23.2777 18.0175 21.57 19.3528 21.0116 21.1819C20.9145 21.4975 20.8498 21.8293 20.8336 22.1692C20.8174 22.2745 20.8174 22.3878 20.8174 22.493V24.1359C20.8498 24.1925 20.874 24.2492 20.8983 24.3139C20.874 24.3382 20.8498 24.3625 20.8174 24.3868V28.1177C20.8174 28.9108 21.0278 29.6554 21.392 30.3029C21.6753 30.8127 22.0556 31.266 22.5169 31.6221C23.2777 32.229 24.2408 32.5932 25.2848 32.5932H28.8296C29.817 32.5932 30.7234 32.2776 31.4599 31.7273C31.8969 31.4197 32.2773 31.0151 32.5767 30.5618C33.038 29.8577 33.3051 29.0161 33.3051 28.1177V22.493C33.3051 22.3392 33.297 22.1773 33.2808 22.0236ZM31.0714 28.1177C31.0714 29.3479 30.0679 30.3514 28.8296 30.3514H25.2848C24.0546 30.3514 23.0511 29.3479 23.0511 28.1177V22.493C23.0511 21.2628 24.0546 20.2593 25.2848 20.2593H28.8296C30.0679 20.2593 31.0714 21.2628 31.0714 22.493V28.1177Z" fill="#2B2B2B"/>
<path d="M31.0706 22.493V28.1177C31.0706 29.3479 30.0671 30.3514 28.8288 30.3514H25.284C24.0538 30.3514 23.0503 29.3479 23.0503 28.1177V22.493C23.0503 21.2628 24.0538 20.2593 25.284 20.2593H28.8288C30.0671 20.2593 31.0706 21.2628 31.0706 22.493Z" fill="white"/>
</svg>
