<svg width="56" height="52" viewBox="0 0 56 52" fill="none" xmlns="http://www.w3.org/2000/svg">
<path d="M32.9788 36.8973L32.9012 36.9439C32.6451 36.7887 32.3968 36.6102 32.1562 36.4318L32.9788 36.8973Z" fill="black"/>
<path d="M49.2974 10.7162H6.4328C2.88661 10.7162 0 13.6028 0 17.149V40.7307C0 44.1217 2.65382 46.9152 5.99826 47.1403C5.12917 47.8464 4.8731 49.1035 5.44732 50.1122C6.09137 51.2219 7.51916 51.6021 8.6288 50.9658L15.2246 47.1558H41.4368L48.0326 50.9658C49.1422 51.6021 50.5623 51.2219 51.2063 50.1122C51.8193 49.0491 51.5012 47.7067 50.5079 47.0394C53.4799 46.4729 55.7302 43.8579 55.7302 40.7307V17.149C55.7302 13.6028 52.8436 10.7162 49.2974 10.7162ZM53.5886 40.7307C53.5886 43.0897 51.6641 45.0141 49.2974 45.0141H6.4328C4.06609 45.0141 2.14168 43.0897 2.14168 40.7307V17.149C2.14168 14.7823 4.06609 12.8579 6.4328 12.8579H49.2974C51.6641 12.8579 53.5886 14.7823 53.5886 17.149V40.7307Z" fill="#2B2B2B"/>
<path d="M34.4531 37.751C33.9099 37.526 33.39 37.2544 32.9012 36.944C32.6451 36.7888 32.3968 36.6104 32.1562 36.4319L32.9788 36.8975L34.4531 37.751Z" fill="black"/>
<path d="M32.9793 36.8975L32.1567 36.4319C32.3973 36.6104 32.6456 36.7888 32.9017 36.944C33.3905 37.2544 33.9104 37.526 34.4536 37.751L32.9793 36.8975Z" fill="white"/>
<path fill-rule="evenodd" clip-rule="evenodd" d="M21.4326 20.6176C21.4326 21.347 20.8041 21.9367 20.0281 21.9367H7.83761C7.06164 21.9367 6.43311 21.347 6.43311 20.6176C6.43311 19.8881 7.06164 19.2906 7.83761 19.2906H20.0281C20.8041 19.2906 21.4326 19.8881 21.4326 20.6176Z" fill="#2B2B2B"/>
<path fill-rule="evenodd" clip-rule="evenodd" d="M21.4316 26.7943C21.4316 27.5237 20.8031 28.1212 20.0271 28.1212H7.83664C7.06067 28.1212 6.43213 27.5237 6.43213 26.7943C6.43213 26.0649 7.06067 25.4674 7.83664 25.4674H20.0271C20.8031 25.4674 21.4316 26.0649 21.4316 26.7943Z" fill="#2B2B2B"/>
<path fill-rule="evenodd" clip-rule="evenodd" d="M21.4316 32.971C21.4316 33.7004 20.8031 34.2979 20.0271 34.2979H7.83664C7.06067 34.2979 6.43213 33.7004 6.43213 32.971C6.43213 32.2416 7.06067 31.6519 7.83664 31.6519H20.0271C20.8031 31.6519 21.4316 32.2416 21.4316 32.971Z" fill="#2B2B2B"/>
<path d="M32.9788 36.8975L32.1562 36.4319C32.3968 36.6104 32.6451 36.7888 32.9012 36.944C33.39 37.2544 33.9099 37.526 34.4531 37.751L32.9788 36.8975Z" fill="white"/>
<path d="M38.5815 15.0073C31.4891 15.0073 25.7236 20.7728 25.7236 27.8652C25.7236 29.8672 26.1815 31.7605 27.004 33.4522C27.198 33.8557 27.4075 34.2436 27.6403 34.6161C28.4861 35.9818 29.5724 37.169 30.845 38.1313C33.0022 39.7608 35.6793 40.7308 38.5815 40.7308C38.9074 40.7308 39.2255 40.7152 39.5437 40.692C46.1937 40.2031 51.4471 34.6316 51.4471 27.8652C51.4471 20.7728 45.6738 15.0073 38.5815 15.0073ZM38.5815 38.5813C37.1226 38.5813 35.7259 38.2864 34.4533 37.751C33.9101 37.526 33.3902 37.2544 32.9014 36.944C32.6453 36.7888 32.397 36.6103 32.1564 36.4319C32.1487 36.4241 32.1409 36.4241 32.1332 36.4164C32.1254 36.4164 32.1176 36.4086 32.1099 36.4008C31.0778 35.6171 30.1855 34.6471 29.4948 33.5375C28.4628 31.8924 27.8653 29.9448 27.8653 27.8652C27.8653 21.9523 32.6763 17.149 38.5815 17.149C44.4944 17.149 49.2976 21.9523 49.2976 27.8652C49.2976 33.7781 44.4944 38.5813 38.5815 38.5813Z" fill="#2B2B2B"/>
<path d="M48.8552 0C47.0782 0 45.6426 1.44331 45.6426 3.21252C45.6426 3.47635 45.6737 3.74018 45.7358 3.98073L35.136 10.0954C34.8954 10.2351 34.7325 10.4601 34.6704 10.7162H37.945L46.7445 5.63355C47.311 6.13017 48.0481 6.4328 48.8552 6.4328C50.6244 6.4328 52.0677 4.98949 52.0677 3.21252C52.0677 1.44331 50.6244 0 48.8552 0ZM49.1267 4.25232C49.0414 4.2756 48.9483 4.29112 48.8552 4.29112C48.2654 4.29112 47.7843 3.81002 47.7843 3.21252C47.7843 3.03405 47.8309 2.87109 47.9085 2.72366C48.0792 2.37447 48.4439 2.14168 48.8552 2.14168C49.4449 2.14168 49.926 2.62278 49.926 3.21252C49.926 3.7169 49.5846 4.13592 49.1267 4.25232Z" fill="#2B2B2B"/>
<path d="M49.9259 3.21256C49.9259 3.71694 49.5844 4.13597 49.1266 4.25236C49.0413 4.27564 48.9481 4.29116 48.855 4.29116C48.2653 4.29116 47.7842 3.81006 47.7842 3.21256C47.7842 3.03409 47.8307 2.87114 47.9083 2.7237C48.079 2.37451 48.4438 2.14172 48.855 2.14172C49.4448 2.14172 49.9259 2.62283 49.9259 3.21256Z" fill="#2B2B2B"/>
</svg>
