<svg width="56" height="52" viewBox="0 0 56 52" fill="none" xmlns="http://www.w3.org/2000/svg">
<path d="M32.828 36.8481L32.7508 36.8946C32.4959 36.7397 32.2487 36.5614 32.0093 36.3832L32.828 36.8481Z" fill="black"/>
<path d="M49.0717 10.7018H6.40334C2.87339 10.7018 0 13.5846 0 17.1261V40.6763C0 44.0628 2.64167 46.8526 5.97079 47.0773C5.10568 47.7825 4.85078 49.0379 5.42237 50.0453C6.06348 51.1535 7.48473 51.5332 8.58928 50.8977L15.1548 47.0928H41.2471L47.8127 50.8977C48.9172 51.5332 50.3307 51.1535 50.9718 50.0453C51.582 48.9836 51.2654 47.643 50.2767 46.9766C53.235 46.4109 55.475 43.7993 55.475 40.6763V17.1261C55.475 13.5846 52.6016 10.7018 49.0717 10.7018ZM53.3432 40.6763C53.3432 43.0321 51.4276 44.954 49.0717 44.954H6.40334C4.04747 44.954 2.13187 43.0321 2.13187 40.6763V17.1261C2.13187 14.7625 4.04747 12.8407 6.40334 12.8407H49.0717C51.4276 12.8407 53.3432 14.7625 53.3432 17.1261V40.6763Z" fill="#2B2B2B"/>
<path d="M34.2956 37.7006C33.7549 37.4759 33.2374 37.2047 32.7508 36.8947C32.4959 36.7397 32.2487 36.5615 32.0093 36.3832L32.828 36.8482L34.2956 37.7006Z" fill="black"/>
<path d="M32.8276 36.8482L32.0088 36.3832C32.2482 36.5615 32.4954 36.7397 32.7503 36.8947C33.2369 37.2047 33.7545 37.4759 34.2951 37.7006L32.8276 36.8482Z" fill="white"/>
<path d="M49.0716 12.8407H6.4033C4.04743 12.8407 2.13184 14.7626 2.13184 17.1261V40.6764C2.13184 43.0322 4.04743 44.954 6.4033 44.954H49.0716C51.4275 44.954 53.3431 43.0322 53.3431 40.6764V17.1261C53.3431 14.7626 51.4275 12.8407 49.0716 12.8407ZM19.9361 34.2522H7.80138C7.02896 34.2522 6.4033 33.6555 6.4033 32.927C6.4033 32.1986 7.02896 31.6097 7.80138 31.6097H19.9361C20.7085 31.6097 21.3341 32.1986 21.3341 32.927C21.3341 33.6555 20.7085 34.2522 19.9361 34.2522ZM19.9361 28.0837H7.80138C7.02896 28.0837 6.4033 27.487 6.4033 26.7586C6.4033 26.0301 7.02896 25.4334 7.80138 25.4334H19.9361C20.7085 25.4334 21.3341 26.0301 21.3341 26.7586C21.3341 27.487 20.7085 28.0837 19.9361 28.0837ZM19.9361 21.9075H7.80138C7.02896 21.9075 6.4033 21.3185 6.4033 20.5901C6.4033 19.8616 7.02896 19.2649 7.80138 19.2649H19.9361C20.7085 19.2649 21.3341 19.8616 21.3341 20.5901C21.3341 21.3185 20.7085 21.9075 19.9361 21.9075ZM39.3624 40.6377C39.0457 40.6609 38.729 40.6764 38.4046 40.6764C35.5157 40.6764 32.8509 39.7077 30.7036 38.0804C29.4368 37.1194 28.3554 35.9338 27.5135 34.5699C27.2817 34.1979 27.0732 33.8105 26.8801 33.4075C26.0613 31.7181 25.6056 29.8273 25.6056 27.828C25.6056 20.7451 31.3447 14.9873 38.4046 14.9873C45.4645 14.9873 51.2112 20.7451 51.2112 27.828C51.2112 34.5854 45.982 40.1494 39.3624 40.6377Z" fill="#C59C2D"/>
<path fill-rule="evenodd" clip-rule="evenodd" d="M21.3337 20.59C21.3337 21.3184 20.708 21.9074 19.9356 21.9074H7.80091C7.02849 21.9074 6.40283 21.3184 6.40283 20.59C6.40283 19.8616 7.02849 19.2649 7.80091 19.2649H19.9356C20.708 19.2649 21.3337 19.8616 21.3337 20.59Z" fill="#2B2B2B"/>
<path fill-rule="evenodd" clip-rule="evenodd" d="M21.3337 26.7586C21.3337 27.487 20.708 28.0837 19.9356 28.0837H7.80091C7.02849 28.0837 6.40283 27.487 6.40283 26.7586C6.40283 26.0301 7.02849 25.4334 7.80091 25.4334H19.9356C20.708 25.4334 21.3337 26.0301 21.3337 26.7586Z" fill="#2B2B2B"/>
<path fill-rule="evenodd" clip-rule="evenodd" d="M21.3337 32.927C21.3337 33.6555 20.708 34.2522 19.9356 34.2522H7.80091C7.02849 34.2522 6.40283 33.6555 6.40283 32.927C6.40283 32.1986 7.02849 31.6096 7.80091 31.6096H19.9356C20.708 31.6096 21.3337 32.1986 21.3337 32.927Z" fill="#2B2B2B"/>
<path d="M32.8271 36.8481L32.0083 36.3831C32.2477 36.5614 32.4949 36.7396 32.7498 36.8946C33.2364 37.2046 33.754 37.4758 34.2947 37.7005L32.8271 36.8481Z" fill="white"/>
<path d="M50 28C50 33.905 44.3858 39 38.5 39C37.0479 39 35.2668 38.5347 34 38L32.5 37.5L31.5 37C30.9917 37 30.5774 37.1636 31 36.5C31.0077 36.5077 30.0149 36.6324 31 36.5C29.9727 35.7173 29.6875 34.6082 29 33.5C27.9727 31.8571 27 30.0768 27 28C27 22.095 32.6219 16.5 38.5 16.5C44.3858 16.5 50 22.095 50 28Z" fill="#32459C"/>
<path d="M38.4044 14.9872C31.3445 14.9872 25.6055 20.745 25.6055 27.8279C25.6055 29.8273 26.0612 31.7181 26.88 33.4075C27.0731 33.8104 27.2816 34.1979 27.5133 34.5699C28.3553 35.9337 29.4367 37.1194 30.7034 38.0803C32.8507 39.7077 35.5156 40.6763 38.4044 40.6763C38.7288 40.6763 39.0455 40.6608 39.3622 40.6376C45.9818 40.1494 51.2111 34.5854 51.2111 27.8279C51.2111 20.745 45.4643 14.9872 38.4044 14.9872ZM38.4044 38.5298C36.9523 38.5298 35.5619 38.2353 34.2952 37.7006C33.7545 37.4759 33.237 37.2046 32.7503 36.8947C32.4954 36.7397 32.2483 36.5614 32.0088 36.3832C32.0011 36.3755 31.9934 36.3755 31.9856 36.3677C31.9779 36.3677 31.9702 36.36 31.9625 36.3522C30.9351 35.5695 30.0469 34.6009 29.3594 33.4927C28.3321 31.8498 27.7373 29.9047 27.7373 27.8279C27.7373 21.9229 32.5263 17.1261 38.4044 17.1261C44.2903 17.1261 49.0715 21.9229 49.0715 27.8279C49.0715 33.7329 44.2903 38.5298 38.4044 38.5298Z" fill="#2B2B2B"/>
<path d="M48.6315 0C46.8627 0 45.4337 1.44138 45.4337 3.20823C45.4337 3.47171 45.4646 3.73519 45.5264 3.97542L34.9752 10.0819C34.7357 10.2214 34.5735 10.4461 34.5117 10.7019H37.7713L46.5305 5.62603C47.0944 6.12199 47.8282 6.42421 48.6315 6.42421C50.3926 6.42421 51.8293 4.98283 51.8293 3.20823C51.8293 1.44138 50.3926 0 48.6315 0ZM48.9019 4.24665C48.8169 4.26989 48.7242 4.28539 48.6315 4.28539C48.0445 4.28539 47.5656 3.80493 47.5656 3.20823C47.5656 3.03 47.6119 2.86726 47.6892 2.72002C47.8591 2.3713 48.2221 2.13882 48.6315 2.13882C49.2185 2.13882 49.6974 2.61928 49.6974 3.20823C49.6974 3.71194 49.3576 4.1304 48.9019 4.24665Z" fill="#2B2B2B"/>
<path d="M49.6973 3.2083C49.6973 3.712 49.3574 4.13047 48.9017 4.24671C48.8167 4.26996 48.7241 4.28546 48.6314 4.28546C48.0443 4.28546 47.5654 3.805 47.5654 3.2083C47.5654 3.03006 47.6118 2.86732 47.689 2.72009C47.8589 2.37137 48.222 2.13889 48.6314 2.13889C49.2184 2.13889 49.6973 2.61935 49.6973 3.2083Z" fill="white"/>
</svg>
