<svg width="53" height="52" viewBox="0 0 53 52" fill="none" xmlns="http://www.w3.org/2000/svg">
<path fill-rule="evenodd" clip-rule="evenodd" d="M20.128 8.56151V8.31132L2.28861 2.29939V38.9818L14.5752 43.1173V45.5382L1.56241 41.1599C0.630834 40.8435 0 39.9678 0 38.9818V2.29939C0 0.732017 1.53307 -0.379124 3.02213 0.121257L20.8542 6.13319C21.6317 6.39074 22.1892 7.03094 22.3579 7.81094L20.128 8.56151Z" fill="#2B2B2B"/>
<path fill-rule="evenodd" clip-rule="evenodd" d="M20.128 8.31134V8.56153L16.1302 9.90815C15.1987 10.2172 14.5752 11.0929 14.5752 12.0863V43.1173L2.28857 38.9818V2.29941L20.128 8.31134Z" fill="#201B59"/>
<path d="M32.5537 2.29941V4.37452L33.9694 3.89621C35.4585 3.39583 36.9916 4.50697 36.9916 6.07434V40.4756L50.3931 44.9864V8.31134L32.5537 2.29941ZM48.1705 25.8762C47.9871 26.4796 47.349 26.8255 46.7475 26.6415L40.0357 24.6179C39.4342 24.4339 39.0894 23.7937 39.2728 23.183C39.4489 22.5796 40.0944 22.2337 40.6959 22.4177L47.4076 24.4413C48.0091 24.6252 48.3539 25.2654 48.1705 25.8762ZM48.1705 21.2771C47.9871 21.8879 47.349 22.2264 46.7475 22.0498L40.0357 20.0188C39.4342 19.8348 39.0894 19.1946 39.2728 18.5912C39.4489 17.9805 40.0944 17.6346 40.6959 17.8186L47.4076 19.8495C48.0091 20.0262 48.3539 20.6663 48.1705 21.2771ZM48.1705 16.678C47.9871 17.2888 47.349 17.6346 46.7475 17.4507L40.0357 15.4271C39.4342 15.2431 39.0894 14.6029 39.2728 13.9921C39.4489 13.3887 40.0944 13.0429 40.6959 13.2269L47.4076 15.2505C48.0091 15.4344 48.3539 16.0746 48.1705 16.678ZM48.1705 12.0863C47.9871 12.697 47.349 13.0355 46.7475 12.8516L40.0357 10.828C39.4342 10.644 39.0894 10.0038 39.2728 9.40041C39.4489 8.78965 40.0944 8.4438 40.6959 8.62776L47.4076 10.6514C48.0091 10.8353 48.3539 11.4755 48.1705 12.0863Z" fill="#26225C"/>
<path fill-rule="evenodd" clip-rule="evenodd" d="M52.6822 8.31132V44.9863C52.6822 46.5537 51.1492 47.6648 49.6674 47.1645L36.9774 42.8965C36.9921 42.8524 36.9921 42.8008 36.9921 42.7567V40.4755L50.3936 44.9863V8.31132L32.5542 2.29939V4.3745L30.2656 5.14715V2.29939C30.2656 0.732017 31.7987 -0.379124 33.2878 0.121257L51.1198 6.13319C52.0514 6.44225 52.6822 7.31792 52.6822 8.31132Z" fill="#2B2B2B"/>
<path d="M34.7032 6.07428V42.7566L16.8638 48.7612V12.0862L20.128 10.9898L22.4166 10.2171L30.2653 7.56806L32.5539 6.79542L34.7032 6.07428Z" fill="#5D57A6"/>
<path fill-rule="evenodd" clip-rule="evenodd" d="M33.9697 3.89613L32.554 4.37444L30.2654 5.14708L22.3579 7.81088L20.128 8.56145L16.1303 9.90806C15.1987 10.2171 14.5752 11.0928 14.5752 12.0862V48.7612C14.5752 50.3286 16.1083 51.4397 17.59 50.9393L35.4294 44.9348C36.317 44.6331 36.9331 43.8236 36.9771 42.8964C36.9918 42.8523 36.9918 42.8008 36.9918 42.7566V6.07426C36.9918 4.50689 35.4587 3.39575 33.9697 3.89613ZM34.7032 42.7566L16.8638 48.7612V12.0862L20.128 10.9898L22.4166 10.2171L30.2654 7.56805L32.554 6.7954L34.7032 6.07426V42.7566Z" fill="#2B2B2B"/>
<path d="M48.1701 12.0862C47.9867 12.6969 47.3486 13.0354 46.7471 12.8515L40.0353 10.8279C39.4338 10.6439 39.089 10.0037 39.2724 9.40032C39.4485 8.78956 40.094 8.44371 40.6955 8.62767L47.4072 10.6513C48.0087 10.8352 48.3535 11.4754 48.1701 12.0862Z" fill="#2B2B2B"/>
<path d="M48.1701 16.678C47.9867 17.2888 47.3486 17.6346 46.7471 17.4506L40.0353 15.427C39.4338 15.2431 39.089 14.6029 39.2724 13.9921C39.4485 13.3887 40.094 13.0429 40.6955 13.2268L47.4072 15.2504C48.0087 15.4344 48.3535 16.0746 48.1701 16.678Z" fill="#2B2B2B"/>
<path d="M48.1701 21.2771C47.9867 21.8878 47.3486 22.2263 46.7471 22.0497L40.0353 20.0188C39.4338 19.8348 39.089 19.1946 39.2724 18.5912C39.4485 17.9804 40.094 17.6346 40.6955 17.8186L47.4072 19.8495C48.0087 20.0261 48.3535 20.6663 48.1701 21.2771Z" fill="#2B2B2B"/>
<path d="M48.1701 25.8762C47.9867 26.4796 47.3486 26.8254 46.7471 26.6415L40.0353 24.6179C39.4338 24.4339 39.089 23.7937 39.2724 23.183C39.4485 22.5796 40.094 22.2337 40.6955 22.4177L47.4072 24.4413C48.0087 24.6252 48.3535 25.2654 48.1701 25.8762Z" fill="#2B2B2B"/>
</svg>
