<svg width="53" height="52" viewBox="0 0 53 52" fill="none" xmlns="http://www.w3.org/2000/svg">
<path fill-rule="evenodd" clip-rule="evenodd" d="M20.2206 8.5737V8.32315L2.29913 2.30266V39.0372L14.6422 43.1786V45.603L1.5696 41.2185C0.633736 40.9016 0 40.0247 0 39.0372V2.30266C0 0.733058 1.54013 -0.379664 3.03604 0.12143L20.9501 6.14192C21.7312 6.39984 22.2913 7.04094 22.4608 7.82206L20.2206 8.5737Z" fill="#2B2B2B"/>
<path fill-rule="evenodd" clip-rule="evenodd" d="M52.924 8.32315V45.0504C52.924 46.6199 51.3839 47.7327 49.8954 47.2316L37.147 42.9575C37.1617 42.9133 37.1617 42.8617 37.1617 42.8175V40.5331L50.6249 45.0504V8.32315L32.7034 2.30266V4.38072L30.4043 5.15447V2.30266C30.4043 0.733058 31.9444 -0.379663 33.4403 0.12143L51.3544 6.14192C52.2903 6.45142 52.924 7.32833 52.924 8.32315Z" fill="#2B2B2B"/>
<path fill-rule="evenodd" clip-rule="evenodd" d="M34.1258 3.9017L32.7036 4.38069L30.4044 5.15444L22.4606 7.82202L20.2204 8.57366L16.2043 9.92219C15.2685 10.2317 14.6421 11.1086 14.6421 12.1034V48.8306C14.6421 50.4002 16.1822 51.5129 17.6708 51.0119L35.5922 44.9987C36.4839 44.6966 37.1029 43.886 37.1471 42.9575C37.1618 42.9133 37.1618 42.8617 37.1618 42.8175V6.08293C37.1618 4.51333 35.6217 3.40061 34.1258 3.9017ZM34.8627 42.8175L16.9412 48.8306V12.1034L20.2204 11.0054L22.5196 10.2317L30.4044 7.57884L32.7036 6.8051L34.8627 6.08293V42.8175Z" fill="#2B2B2B"/>
<path d="M48.3924 12.1035C48.2082 12.7151 47.5671 13.0541 46.9628 12.8699L40.2202 10.8434C39.6159 10.6592 39.2696 10.018 39.4538 9.41379C39.6307 8.80216 40.2791 8.45581 40.8834 8.64004L47.626 10.6665C48.2303 10.8507 48.5766 11.4918 48.3924 12.1035Z" fill="#2B2B2B"/>
<path d="M48.3924 16.7017C48.2082 17.3134 47.5671 17.6597 46.9628 17.4755L40.2202 15.449C39.6159 15.2648 39.2696 14.6237 39.4538 14.0121C39.6307 13.4078 40.2791 13.0614 40.8834 13.2457L47.626 15.2722C48.2303 15.4564 48.5766 16.0975 48.3924 16.7017Z" fill="#2B2B2B"/>
<path d="M48.3924 21.3073C48.2082 21.919 47.5671 22.2579 46.9628 22.0811L40.2202 20.0472C39.6159 19.863 39.2696 19.2219 39.4538 18.6176C39.6307 18.006 40.2791 17.6597 40.8834 17.8439L47.626 19.8777C48.2303 20.0546 48.5766 20.6957 48.3924 21.3073Z" fill="#2B2B2B"/>
<path d="M48.3924 25.913C48.2082 26.5172 47.5671 26.8636 46.9628 26.6794L40.2202 24.6529C39.6159 24.4686 39.2696 23.8275 39.4538 23.2159C39.6307 22.6117 40.2791 22.2653 40.8834 22.4495L47.626 24.476C48.2303 24.6602 48.5766 25.3013 48.3924 25.913Z" fill="#2B2B2B"/>
</svg>
